<mxfile host="app.diagrams.net" modified="2023-09-28T09:13:53.182Z" agent="Mozilla/5.0 (Windows NT 10.0; Win64; x64) AppleWebKit/537.36 (KHTML, like Gecko) Chrome/116.0.0.0 Safari/537.36 OPR/102.0.0.0" etag="JFS1UJ9yLVDJxWx8QUz5" version="21.8.2" type="device">
  <diagram name="Página-1" id="5DFkzxoy5tuA7ANx0Zj8">
    <mxGraphModel dx="1161" dy="632" grid="1" gridSize="10" guides="1" tooltips="1" connect="1" arrows="1" fold="1" page="1" pageScale="1" pageWidth="1169" pageHeight="827" math="0" shadow="1">
      <root>
        <mxCell id="0" />
        <mxCell id="1" parent="0" />
        <mxCell id="sHMrZhrAXfFbiW-CDxX_-7" value="" style="edgeStyle=orthogonalEdgeStyle;rounded=0;orthogonalLoop=1;jettySize=auto;html=1;" edge="1" parent="1" source="sHMrZhrAXfFbiW-CDxX_-1" target="sHMrZhrAXfFbiW-CDxX_-6">
          <mxGeometry relative="1" as="geometry" />
        </mxCell>
        <mxCell id="sHMrZhrAXfFbiW-CDxX_-10" value="" style="edgeStyle=orthogonalEdgeStyle;rounded=0;orthogonalLoop=1;jettySize=auto;html=1;" edge="1" parent="1" source="sHMrZhrAXfFbiW-CDxX_-1" target="sHMrZhrAXfFbiW-CDxX_-9">
          <mxGeometry relative="1" as="geometry" />
        </mxCell>
        <mxCell id="sHMrZhrAXfFbiW-CDxX_-19" value="" style="edgeStyle=orthogonalEdgeStyle;rounded=0;orthogonalLoop=1;jettySize=auto;html=1;" edge="1" parent="1" source="sHMrZhrAXfFbiW-CDxX_-1" target="sHMrZhrAXfFbiW-CDxX_-18">
          <mxGeometry relative="1" as="geometry" />
        </mxCell>
        <mxCell id="sHMrZhrAXfFbiW-CDxX_-1" value="SUCURSAL" style="whiteSpace=wrap;html=1;align=center;rounded=0;" vertex="1" parent="1">
          <mxGeometry x="490" y="130" width="100" height="40" as="geometry" />
        </mxCell>
        <mxCell id="sHMrZhrAXfFbiW-CDxX_-16" value="" style="edgeStyle=orthogonalEdgeStyle;rounded=0;orthogonalLoop=1;jettySize=auto;html=1;" edge="1" parent="1" source="sHMrZhrAXfFbiW-CDxX_-2" target="sHMrZhrAXfFbiW-CDxX_-15">
          <mxGeometry relative="1" as="geometry" />
        </mxCell>
        <mxCell id="sHMrZhrAXfFbiW-CDxX_-2" value="REVISTA" style="whiteSpace=wrap;html=1;align=center;rounded=0;" vertex="1" parent="1">
          <mxGeometry x="490" y="390" width="100" height="40" as="geometry" />
        </mxCell>
        <mxCell id="sHMrZhrAXfFbiW-CDxX_-3" value="EMPLEADOS" style="whiteSpace=wrap;html=1;align=center;rounded=0;" vertex="1" parent="1">
          <mxGeometry x="310" y="260" width="100" height="40" as="geometry" />
        </mxCell>
        <mxCell id="sHMrZhrAXfFbiW-CDxX_-4" value="PERIODISTA" style="whiteSpace=wrap;html=1;align=center;rounded=0;" vertex="1" parent="1">
          <mxGeometry x="670" y="260" width="100" height="40" as="geometry" />
        </mxCell>
        <mxCell id="sHMrZhrAXfFbiW-CDxX_-5" value="NÚMERO" style="whiteSpace=wrap;html=1;align=center;rounded=0;" vertex="1" parent="1">
          <mxGeometry x="490" y="670" width="100" height="40" as="geometry" />
        </mxCell>
        <mxCell id="sHMrZhrAXfFbiW-CDxX_-8" style="edgeStyle=orthogonalEdgeStyle;rounded=0;orthogonalLoop=1;jettySize=auto;html=1;exitX=0.5;exitY=1;exitDx=0;exitDy=0;entryX=0.5;entryY=0;entryDx=0;entryDy=0;" edge="1" parent="1" source="sHMrZhrAXfFbiW-CDxX_-6" target="sHMrZhrAXfFbiW-CDxX_-3">
          <mxGeometry relative="1" as="geometry" />
        </mxCell>
        <mxCell id="sHMrZhrAXfFbiW-CDxX_-6" value="tiene" style="rhombus;whiteSpace=wrap;html=1;rounded=0;" vertex="1" parent="1">
          <mxGeometry x="320" y="110" width="80" height="80" as="geometry" />
        </mxCell>
        <mxCell id="sHMrZhrAXfFbiW-CDxX_-11" style="edgeStyle=orthogonalEdgeStyle;rounded=0;orthogonalLoop=1;jettySize=auto;html=1;exitX=0.5;exitY=1;exitDx=0;exitDy=0;entryX=0.5;entryY=0;entryDx=0;entryDy=0;" edge="1" parent="1" source="sHMrZhrAXfFbiW-CDxX_-9" target="sHMrZhrAXfFbiW-CDxX_-2">
          <mxGeometry relative="1" as="geometry" />
        </mxCell>
        <mxCell id="sHMrZhrAXfFbiW-CDxX_-9" value="publica" style="rhombus;whiteSpace=wrap;html=1;rounded=0;" vertex="1" parent="1">
          <mxGeometry x="500" y="230" width="80" height="80" as="geometry" />
        </mxCell>
        <mxCell id="sHMrZhrAXfFbiW-CDxX_-17" style="edgeStyle=orthogonalEdgeStyle;rounded=0;orthogonalLoop=1;jettySize=auto;html=1;exitX=0.5;exitY=1;exitDx=0;exitDy=0;entryX=0.5;entryY=0;entryDx=0;entryDy=0;" edge="1" parent="1" source="sHMrZhrAXfFbiW-CDxX_-15" target="sHMrZhrAXfFbiW-CDxX_-5">
          <mxGeometry relative="1" as="geometry" />
        </mxCell>
        <mxCell id="sHMrZhrAXfFbiW-CDxX_-15" value="se divide" style="rhombus;whiteSpace=wrap;html=1;rounded=0;" vertex="1" parent="1">
          <mxGeometry x="500" y="490" width="80" height="80" as="geometry" />
        </mxCell>
        <mxCell id="sHMrZhrAXfFbiW-CDxX_-20" value="" style="edgeStyle=orthogonalEdgeStyle;rounded=0;orthogonalLoop=1;jettySize=auto;html=1;" edge="1" parent="1" source="sHMrZhrAXfFbiW-CDxX_-18" target="sHMrZhrAXfFbiW-CDxX_-4">
          <mxGeometry relative="1" as="geometry" />
        </mxCell>
        <mxCell id="sHMrZhrAXfFbiW-CDxX_-18" value="tiene" style="rhombus;whiteSpace=wrap;html=1;rounded=0;" vertex="1" parent="1">
          <mxGeometry x="680" y="110" width="80" height="80" as="geometry" />
        </mxCell>
        <mxCell id="sHMrZhrAXfFbiW-CDxX_-21" value="DNI" style="ellipse;whiteSpace=wrap;html=1;align=center;fontStyle=4;rounded=0;" vertex="1" parent="1">
          <mxGeometry x="170" y="230" width="100" height="40" as="geometry" />
        </mxCell>
        <mxCell id="sHMrZhrAXfFbiW-CDxX_-22" value="DNI" style="ellipse;whiteSpace=wrap;html=1;align=center;fontStyle=4;rounded=0;" vertex="1" parent="1">
          <mxGeometry x="810" y="210" width="100" height="40" as="geometry" />
        </mxCell>
        <mxCell id="sHMrZhrAXfFbiW-CDxX_-23" value="Cód_sucursal" style="ellipse;whiteSpace=wrap;html=1;align=center;fontStyle=4;rounded=0;" vertex="1" parent="1">
          <mxGeometry x="390" y="60" width="100" height="40" as="geometry" />
        </mxCell>
        <mxCell id="sHMrZhrAXfFbiW-CDxX_-24" value="Núm_registro" style="ellipse;whiteSpace=wrap;html=1;align=center;fontStyle=4;rounded=0;" vertex="1" parent="1">
          <mxGeometry x="360" y="360" width="100" height="40" as="geometry" />
        </mxCell>
        <mxCell id="sHMrZhrAXfFbiW-CDxX_-27" value="Fecha" style="ellipse;shape=doubleEllipse;margin=3;whiteSpace=wrap;html=1;align=center;fontStyle=4;rounded=0;" vertex="1" parent="1">
          <mxGeometry x="360" y="670" width="100" height="40" as="geometry" />
        </mxCell>
        <mxCell id="sHMrZhrAXfFbiW-CDxX_-29" value="" style="endArrow=none;html=1;entryX=1;entryY=0.5;entryDx=0;entryDy=0;exitX=0;exitY=0.5;exitDx=0;exitDy=0;" edge="1" parent="1" source="sHMrZhrAXfFbiW-CDxX_-3" target="sHMrZhrAXfFbiW-CDxX_-21">
          <mxGeometry width="50" height="50" relative="1" as="geometry">
            <mxPoint x="560" y="420" as="sourcePoint" />
            <mxPoint x="610" y="370" as="targetPoint" />
          </mxGeometry>
        </mxCell>
        <mxCell id="sHMrZhrAXfFbiW-CDxX_-30" value="" style="endArrow=none;html=1;exitX=0;exitY=0.5;exitDx=0;exitDy=0;entryX=1;entryY=0.5;entryDx=0;entryDy=0;" edge="1" parent="1" target="sHMrZhrAXfFbiW-CDxX_-24">
          <mxGeometry width="50" height="50" relative="1" as="geometry">
            <mxPoint x="490" y="409.5" as="sourcePoint" />
            <mxPoint x="470" y="410" as="targetPoint" />
          </mxGeometry>
        </mxCell>
        <mxCell id="sHMrZhrAXfFbiW-CDxX_-31" value="" style="endArrow=none;html=1;entryX=1;entryY=0.5;entryDx=0;entryDy=0;exitX=0;exitY=0.5;exitDx=0;exitDy=0;" edge="1" parent="1" source="sHMrZhrAXfFbiW-CDxX_-5" target="sHMrZhrAXfFbiW-CDxX_-27">
          <mxGeometry width="50" height="50" relative="1" as="geometry">
            <mxPoint x="330" y="300" as="sourcePoint" />
            <mxPoint x="290" y="300" as="targetPoint" />
          </mxGeometry>
        </mxCell>
        <mxCell id="sHMrZhrAXfFbiW-CDxX_-32" value="" style="endArrow=none;html=1;entryX=1;entryY=0.5;entryDx=0;entryDy=0;exitX=0;exitY=0.5;exitDx=0;exitDy=0;" edge="1" parent="1" source="sHMrZhrAXfFbiW-CDxX_-22" target="sHMrZhrAXfFbiW-CDxX_-4">
          <mxGeometry width="50" height="50" relative="1" as="geometry">
            <mxPoint x="340" y="310" as="sourcePoint" />
            <mxPoint x="300" y="310" as="targetPoint" />
          </mxGeometry>
        </mxCell>
        <mxCell id="sHMrZhrAXfFbiW-CDxX_-33" value="Teléfono" style="ellipse;whiteSpace=wrap;html=1;align=center;" vertex="1" parent="1">
          <mxGeometry x="810" y="310" width="100" height="40" as="geometry" />
        </mxCell>
        <mxCell id="sHMrZhrAXfFbiW-CDxX_-34" value="Teléfono" style="ellipse;whiteSpace=wrap;html=1;align=center;" vertex="1" parent="1">
          <mxGeometry x="170" y="290" width="100" height="40" as="geometry" />
        </mxCell>
        <mxCell id="sHMrZhrAXfFbiW-CDxX_-35" value="Teléfono" style="ellipse;whiteSpace=wrap;html=1;align=center;" vertex="1" parent="1">
          <mxGeometry x="585" y="60" width="100" height="40" as="geometry" />
        </mxCell>
        <mxCell id="sHMrZhrAXfFbiW-CDxX_-36" value="" style="endArrow=none;html=1;entryX=1;entryY=0.5;entryDx=0;entryDy=0;exitX=0;exitY=0.5;exitDx=0;exitDy=0;" edge="1" parent="1" source="sHMrZhrAXfFbiW-CDxX_-3" target="sHMrZhrAXfFbiW-CDxX_-34">
          <mxGeometry width="50" height="50" relative="1" as="geometry">
            <mxPoint x="320" y="290" as="sourcePoint" />
            <mxPoint x="280" y="290" as="targetPoint" />
          </mxGeometry>
        </mxCell>
        <mxCell id="sHMrZhrAXfFbiW-CDxX_-37" value="" style="endArrow=none;html=1;entryX=1;entryY=0.5;entryDx=0;entryDy=0;exitX=0;exitY=0.5;exitDx=0;exitDy=0;" edge="1" parent="1" source="sHMrZhrAXfFbiW-CDxX_-33" target="sHMrZhrAXfFbiW-CDxX_-4">
          <mxGeometry width="50" height="50" relative="1" as="geometry">
            <mxPoint x="330" y="300" as="sourcePoint" />
            <mxPoint x="290" y="300" as="targetPoint" />
          </mxGeometry>
        </mxCell>
        <mxCell id="sHMrZhrAXfFbiW-CDxX_-38" value="Especialidad" style="ellipse;whiteSpace=wrap;html=1;align=center;" vertex="1" parent="1">
          <mxGeometry x="810" y="260" width="100" height="40" as="geometry" />
        </mxCell>
        <mxCell id="sHMrZhrAXfFbiW-CDxX_-39" value="" style="endArrow=none;html=1;entryX=1;entryY=0.5;entryDx=0;entryDy=0;exitX=0;exitY=0.5;exitDx=0;exitDy=0;" edge="1" parent="1" source="sHMrZhrAXfFbiW-CDxX_-38" target="sHMrZhrAXfFbiW-CDxX_-4">
          <mxGeometry width="50" height="50" relative="1" as="geometry">
            <mxPoint x="820" y="360" as="sourcePoint" />
            <mxPoint x="780" y="310" as="targetPoint" />
          </mxGeometry>
        </mxCell>
        <mxCell id="sHMrZhrAXfFbiW-CDxX_-40" value="" style="endArrow=none;html=1;entryX=0.5;entryY=1;entryDx=0;entryDy=0;exitX=0.5;exitY=0;exitDx=0;exitDy=0;" edge="1" parent="1" source="sHMrZhrAXfFbiW-CDxX_-1" target="sHMrZhrAXfFbiW-CDxX_-23">
          <mxGeometry width="50" height="50" relative="1" as="geometry">
            <mxPoint x="830" y="370" as="sourcePoint" />
            <mxPoint x="790" y="320" as="targetPoint" />
          </mxGeometry>
        </mxCell>
        <mxCell id="sHMrZhrAXfFbiW-CDxX_-41" value="" style="endArrow=none;html=1;entryX=0.5;entryY=0;entryDx=0;entryDy=0;exitX=0.5;exitY=1;exitDx=0;exitDy=0;" edge="1" parent="1" source="sHMrZhrAXfFbiW-CDxX_-35" target="sHMrZhrAXfFbiW-CDxX_-1">
          <mxGeometry width="50" height="50" relative="1" as="geometry">
            <mxPoint x="840" y="380" as="sourcePoint" />
            <mxPoint x="800" y="330" as="targetPoint" />
          </mxGeometry>
        </mxCell>
        <mxCell id="sHMrZhrAXfFbiW-CDxX_-43" value="Domicilio" style="ellipse;shape=doubleEllipse;margin=3;whiteSpace=wrap;html=1;align=center;" vertex="1" parent="1">
          <mxGeometry x="490" y="30" width="100" height="40" as="geometry" />
        </mxCell>
        <mxCell id="sHMrZhrAXfFbiW-CDxX_-45" value="" style="endArrow=none;html=1;entryX=0.5;entryY=0;entryDx=0;entryDy=0;exitX=0.5;exitY=1;exitDx=0;exitDy=0;" edge="1" parent="1" source="sHMrZhrAXfFbiW-CDxX_-43" target="sHMrZhrAXfFbiW-CDxX_-1">
          <mxGeometry width="50" height="50" relative="1" as="geometry">
            <mxPoint x="645" y="110" as="sourcePoint" />
            <mxPoint x="550" y="140" as="targetPoint" />
          </mxGeometry>
        </mxCell>
        <mxCell id="sHMrZhrAXfFbiW-CDxX_-46" value="Tipo" style="ellipse;whiteSpace=wrap;html=1;align=center;" vertex="1" parent="1">
          <mxGeometry x="620" y="360" width="100" height="40" as="geometry" />
        </mxCell>
        <mxCell id="sHMrZhrAXfFbiW-CDxX_-48" value="Periodicidad" style="ellipse;whiteSpace=wrap;html=1;align=center;" vertex="1" parent="1">
          <mxGeometry x="620" y="414" width="100" height="40" as="geometry" />
        </mxCell>
        <mxCell id="sHMrZhrAXfFbiW-CDxX_-49" value="Título" style="ellipse;shape=doubleEllipse;margin=3;whiteSpace=wrap;html=1;align=center;" vertex="1" parent="1">
          <mxGeometry x="360" y="414" width="100" height="40" as="geometry" />
        </mxCell>
        <mxCell id="sHMrZhrAXfFbiW-CDxX_-51" value="" style="endArrow=none;html=1;exitX=1;exitY=0.5;exitDx=0;exitDy=0;entryX=0;entryY=0.5;entryDx=0;entryDy=0;" edge="1" parent="1" source="sHMrZhrAXfFbiW-CDxX_-49" target="sHMrZhrAXfFbiW-CDxX_-2">
          <mxGeometry width="50" height="50" relative="1" as="geometry">
            <mxPoint x="510" y="429.5" as="sourcePoint" />
            <mxPoint x="480" y="430" as="targetPoint" />
          </mxGeometry>
        </mxCell>
        <mxCell id="sHMrZhrAXfFbiW-CDxX_-52" value="" style="endArrow=none;html=1;exitX=0;exitY=0.5;exitDx=0;exitDy=0;entryX=1;entryY=0.5;entryDx=0;entryDy=0;" edge="1" parent="1" source="sHMrZhrAXfFbiW-CDxX_-48" target="sHMrZhrAXfFbiW-CDxX_-2">
          <mxGeometry width="50" height="50" relative="1" as="geometry">
            <mxPoint x="520" y="439.5" as="sourcePoint" />
            <mxPoint x="490" y="440" as="targetPoint" />
          </mxGeometry>
        </mxCell>
        <mxCell id="sHMrZhrAXfFbiW-CDxX_-53" value="" style="endArrow=none;html=1;exitX=0;exitY=0.5;exitDx=0;exitDy=0;entryX=1;entryY=0.5;entryDx=0;entryDy=0;" edge="1" parent="1" source="sHMrZhrAXfFbiW-CDxX_-46" target="sHMrZhrAXfFbiW-CDxX_-2">
          <mxGeometry width="50" height="50" relative="1" as="geometry">
            <mxPoint x="530" y="449.5" as="sourcePoint" />
            <mxPoint x="500" y="450" as="targetPoint" />
          </mxGeometry>
        </mxCell>
        <mxCell id="sHMrZhrAXfFbiW-CDxX_-54" value="Núm_páginas" style="ellipse;whiteSpace=wrap;html=1;align=center;" vertex="1" parent="1">
          <mxGeometry x="490" y="750" width="100" height="40" as="geometry" />
        </mxCell>
        <mxCell id="sHMrZhrAXfFbiW-CDxX_-55" value="Núm_ejemplares" style="ellipse;whiteSpace=wrap;html=1;align=center;" vertex="1" parent="1">
          <mxGeometry x="620" y="670" width="100" height="40" as="geometry" />
        </mxCell>
        <mxCell id="sHMrZhrAXfFbiW-CDxX_-57" value="" style="endArrow=none;html=1;exitX=0;exitY=0.5;exitDx=0;exitDy=0;entryX=1;entryY=0.5;entryDx=0;entryDy=0;" edge="1" parent="1" source="sHMrZhrAXfFbiW-CDxX_-55" target="sHMrZhrAXfFbiW-CDxX_-5">
          <mxGeometry width="50" height="50" relative="1" as="geometry">
            <mxPoint x="500" y="700" as="sourcePoint" />
            <mxPoint x="600" y="690" as="targetPoint" />
          </mxGeometry>
        </mxCell>
        <mxCell id="sHMrZhrAXfFbiW-CDxX_-59" value="" style="endArrow=none;html=1;entryX=0.5;entryY=1;entryDx=0;entryDy=0;exitX=0.5;exitY=0;exitDx=0;exitDy=0;" edge="1" parent="1" source="sHMrZhrAXfFbiW-CDxX_-54" target="sHMrZhrAXfFbiW-CDxX_-5">
          <mxGeometry width="50" height="50" relative="1" as="geometry">
            <mxPoint x="510" y="710" as="sourcePoint" />
            <mxPoint x="480" y="710" as="targetPoint" />
          </mxGeometry>
        </mxCell>
        <mxCell id="sHMrZhrAXfFbiW-CDxX_-60" value="(1,1)" style="text;html=1;strokeColor=none;fillColor=none;align=center;verticalAlign=middle;whiteSpace=wrap;rounded=0;" vertex="1" parent="1">
          <mxGeometry x="420" y="120" width="60" height="30" as="geometry" />
        </mxCell>
        <mxCell id="sHMrZhrAXfFbiW-CDxX_-61" value="(0,n)" style="text;html=1;strokeColor=none;fillColor=none;align=center;verticalAlign=middle;whiteSpace=wrap;rounded=0;" vertex="1" parent="1">
          <mxGeometry x="605" y="120" width="60" height="30" as="geometry" />
        </mxCell>
        <mxCell id="sHMrZhrAXfFbiW-CDxX_-62" value="(0,n)" style="text;html=1;strokeColor=none;fillColor=none;align=center;verticalAlign=middle;whiteSpace=wrap;rounded=0;" vertex="1" parent="1">
          <mxGeometry x="720" y="210" width="60" height="30" as="geometry" />
        </mxCell>
        <mxCell id="sHMrZhrAXfFbiW-CDxX_-63" value="(N:M)" style="text;html=1;strokeColor=none;fillColor=none;align=center;verticalAlign=middle;whiteSpace=wrap;rounded=0;" vertex="1" parent="1">
          <mxGeometry x="750" y="135" width="60" height="30" as="geometry" />
        </mxCell>
        <mxCell id="sHMrZhrAXfFbiW-CDxX_-64" value="(1,n)" style="text;html=1;strokeColor=none;fillColor=none;align=center;verticalAlign=middle;whiteSpace=wrap;rounded=0;" vertex="1" parent="1">
          <mxGeometry x="300" y="210" width="60" height="30" as="geometry" />
        </mxCell>
        <mxCell id="sHMrZhrAXfFbiW-CDxX_-65" value="(N:1)" style="text;html=1;strokeColor=none;fillColor=none;align=center;verticalAlign=middle;whiteSpace=wrap;rounded=0;" vertex="1" parent="1">
          <mxGeometry x="260" y="135" width="60" height="30" as="geometry" />
        </mxCell>
        <mxCell id="sHMrZhrAXfFbiW-CDxX_-66" value="(1,1)" style="text;html=1;strokeColor=none;fillColor=none;align=center;verticalAlign=middle;whiteSpace=wrap;rounded=0;" vertex="1" parent="1">
          <mxGeometry x="540" y="180" width="60" height="30" as="geometry" />
        </mxCell>
        <mxCell id="sHMrZhrAXfFbiW-CDxX_-67" value="(1,n)" style="text;html=1;strokeColor=none;fillColor=none;align=center;verticalAlign=middle;whiteSpace=wrap;rounded=0;" vertex="1" parent="1">
          <mxGeometry x="540" y="340" width="60" height="30" as="geometry" />
        </mxCell>
        <mxCell id="sHMrZhrAXfFbiW-CDxX_-68" value="(1:N)" style="text;html=1;strokeColor=none;fillColor=none;align=center;verticalAlign=middle;whiteSpace=wrap;rounded=0;" vertex="1" parent="1">
          <mxGeometry x="570" y="255" width="60" height="30" as="geometry" />
        </mxCell>
        <mxCell id="sHMrZhrAXfFbiW-CDxX_-69" value="(1,n)" style="text;html=1;strokeColor=none;fillColor=none;align=center;verticalAlign=middle;whiteSpace=wrap;rounded=0;" vertex="1" parent="1">
          <mxGeometry x="530" y="610" width="60" height="30" as="geometry" />
        </mxCell>
        <mxCell id="sHMrZhrAXfFbiW-CDxX_-70" value="(1,1)" style="text;html=1;strokeColor=none;fillColor=none;align=center;verticalAlign=middle;whiteSpace=wrap;rounded=0;" vertex="1" parent="1">
          <mxGeometry x="530" y="445" width="60" height="30" as="geometry" />
        </mxCell>
        <mxCell id="sHMrZhrAXfFbiW-CDxX_-71" value="(1:N)" style="text;html=1;strokeColor=none;fillColor=none;align=center;verticalAlign=middle;whiteSpace=wrap;rounded=0;" vertex="1" parent="1">
          <mxGeometry x="570" y="515" width="60" height="30" as="geometry" />
        </mxCell>
      </root>
    </mxGraphModel>
  </diagram>
</mxfile>
